<?xml version="1.0" encoding="UTF-8" standalone="no"?>
<svg
   xmlns:dc="http://purl.org/dc/elements/1.1/"
   xmlns:cc="http://creativecommons.org/ns#"
   xmlns:rdf="http://www.w3.org/1999/02/22-rdf-syntax-ns#"
   xmlns:svg="http://www.w3.org/2000/svg"
   xmlns="http://www.w3.org/2000/svg"
   xmlns:sodipodi="http://sodipodi.sourceforge.net/DTD/sodipodi-0.dtd"
   xmlns:inkscape="http://www.inkscape.org/namespaces/inkscape"
   width="100mm"
   height="31.178146mm"
   viewBox="0 0 99.999999 31.178146"
   version="1.1"
   id="svg411"
   inkscape:version="1.0.2 (e86c870879, 2021-01-15)"
   sodipodi:docname="logo.svg">
  <defs
     id="defs405" />
  <sodipodi:namedview
     id="base"
     pagecolor="#ffffff"
     bordercolor="#666666"
     borderopacity="1.0"
     inkscape:pageopacity="0.0"
     inkscape:pageshadow="2"
     inkscape:zoom="2.1858078"
     inkscape:cx="192.84136"
     inkscape:cy="80.021536"
     inkscape:document-units="mm"
     inkscape:current-layer="layer1"
     inkscape:document-rotation="0"
     showgrid="false"
     fit-margin-top="0"
     fit-margin-left="0"
     fit-margin-right="0"
     fit-margin-bottom="0"
     inkscape:showpageshadow="false"
     inkscape:window-width="1388"
     inkscape:window-height="866"
     inkscape:window-x="0"
     inkscape:window-y="0"
     inkscape:window-maximized="0" />
  <metadata
     id="metadata408">
    <rdf:RDF>
      <cc:Work
         rdf:about="">
        <dc:format>image/svg+xml</dc:format>
        <dc:type
           rdf:resource="http://purl.org/dc/dcmitype/StillImage" />
        <dc:title></dc:title>
      </cc:Work>
    </rdf:RDF>
  </metadata>
  <g
     inkscape:label="Layer 1"
     inkscape:groupmode="layer"
     id="layer1"
     transform="translate(-94.807178,-42.490535)">
    <g
       id="g329"
       transform="matrix(0.35277777,0,0,-0.35277777,15.456648,151.87916)">
      <path
         d="m 249.283,225.676 c 0,0 -4.413,-2.669 -11.618,-2.669 -6.709,0 -11.617,2.669 -11.617,2.669 v 72.868 c 0,0 4.651,2.02 11.617,2.02 7.979,0 11.618,-2.02 11.618,-2.02 z"
         style="fill:none;stroke:#131112;stroke-width:2.23472;stroke-linecap:round;stroke-linejoin:round;stroke-miterlimit:10;stroke-dasharray:none;stroke-opacity:1"
         id="path62" />
      <path
         d="m 244.364,272.619 h -13.398 v 21.614 h 13.398 z"
         style="fill:none;stroke:#131112;stroke-width:2.23472;stroke-linecap:round;stroke-linejoin:round;stroke-miterlimit:10;stroke-dasharray:none;stroke-opacity:1"
         id="path64" />
      <path
         d="m 278.777,224.74 c 0,0 -5.352,-3.041 -14.092,-3.041 -8.139,0 -14.093,3.041 -14.093,3.041 v 83.036 c 0,0 5.641,2.302 14.093,2.302 9.677,0 14.092,-2.302 14.092,-2.302 V 224.74"
         style="fill:#3d80bc;fill-opacity:1;fill-rule:nonzero;stroke:none;stroke-width:0.1"
         id="path66" />
      <path
         d="M 274.348,294.839 H 255.33 v 8.893 h 19.018 v -8.893"
         style="fill:#ffffff;fill-opacity:1;fill-rule:nonzero;stroke:none;stroke-width:0.1"
         id="path68" />
      <path
         d="m 293.465,227.451 v 0 c -6.119,0 -11.08,4.96 -11.08,11.079 v 58.663 c 0,0 4.431,-4.161 11.08,-4.161 6.18,0 11.079,4.161 11.079,4.161 V 238.53 c 0,-6.119 -4.96,-11.079 -11.079,-11.079 z"
         style="fill:none;stroke:#131112;stroke-width:2.02301;stroke-linecap:round;stroke-linejoin:round;stroke-miterlimit:10;stroke-dasharray:none;stroke-opacity:1"
         id="path70" />
      <path
         d="m 306.018,303.732 v -66.659 c 0,-6.953 -5.636,-12.589 -12.589,-12.589 v 0 c -6.953,0 -12.59,5.636 -12.59,12.589 v 66.659"
         style="fill:none;stroke:#131112;stroke-width:4.46944;stroke-linecap:round;stroke-linejoin:round;stroke-miterlimit:10;stroke-dasharray:none;stroke-opacity:1"
         id="path72" />
      <path
         d="M 289.401,293.562 V 253.078"
         style="fill:none;stroke:#131112;stroke-width:2.02301;stroke-linecap:round;stroke-linejoin:round;stroke-miterlimit:10;stroke-dasharray:none;stroke-opacity:1"
         id="path74" />
      <path
         d="M 293.465,293.032 V 240.434"
         style="fill:none;stroke:#131112;stroke-width:2.02301;stroke-linecap:round;stroke-linejoin:round;stroke-miterlimit:10;stroke-dasharray:none;stroke-opacity:1"
         id="path76" />
      <path
         d="M 297.371,293.562 V 260.478"
         style="fill:none;stroke:#131112;stroke-width:2.02301;stroke-linecap:round;stroke-linejoin:round;stroke-miterlimit:10;stroke-dasharray:none;stroke-opacity:1"
         id="path78" />
    </g>
    <text
       xml:space="preserve"
       style="font-style:normal;font-weight:normal;font-size:9.25365px;line-height:1.25;font-family:sans-serif;fill:#000000;fill-opacity:1;stroke:none;stroke-width:0.231342"
       x="125.74543"
       y="62.149193"
       id="text19"><tspan
         sodipodi:role="line"
         id="tspan17"
         x="125.74543"
         y="62.149193"
         style="stroke-width:0.231342">KIDS EDU<tspan
   style="fill:#3f8ebf;fill-opacity:1;stroke-width:0.231342"
   id="tspan844">TECH</tspan></tspan></text>
  </g>
</svg>
